<mxfile host="drawio-plugin" modified="2023-10-03T14:18:42.589Z" agent="5.0 (Macintosh; Intel Mac OS X 10_15_7) AppleWebKit/537.36 (KHTML, like Gecko) Chrome/111.0.0.0 Safari/537.36" etag="8dUkz1RJGoU7Y2J-g477" version="20.5.3" type="embed" pages="3"><diagram name="Confluent" id="AembNj1Ek4yvnKRCBcdm"><mxGraphModel dx="893" dy="563" grid="1" gridSize="10" guides="1" tooltips="1" connect="1" arrows="1" fold="1" page="1" pageScale="1" pageWidth="1100" pageHeight="850" math="0" shadow="0"><root><mxCell id="tUZkC6LxxE1odkEbu_5l-0"/><mxCell id="tUZkC6LxxE1odkEbu_5l-1" parent="tUZkC6LxxE1odkEbu_5l-0"/><mxCell id="tUZkC6LxxE1odkEbu_5l-2" style="edgeStyle=orthogonalEdgeStyle;rounded=0;orthogonalLoop=1;jettySize=auto;html=1;exitX=1;exitY=0.5;exitDx=0;exitDy=0;" parent="tUZkC6LxxE1odkEbu_5l-1" source="tUZkC6LxxE1odkEbu_5l-3" edge="1"><mxGeometry relative="1" as="geometry"><mxPoint x="590" y="330" as="targetPoint"/></mxGeometry></mxCell><mxCell id="tUZkC6LxxE1odkEbu_5l-3" value="" style="whiteSpace=wrap;html=1;aspect=fixed;" parent="tUZkC6LxxE1odkEbu_5l-1" vertex="1"><mxGeometry x="70" y="150" width="360" height="360" as="geometry"/></mxCell><mxCell id="tUZkC6LxxE1odkEbu_5l-4" value="&lt;b&gt;Unstructured/Structured Data Sources&lt;/b&gt;" style="text;html=1;strokeColor=none;fillColor=none;align=center;verticalAlign=middle;whiteSpace=wrap;rounded=0;" parent="tUZkC6LxxE1odkEbu_5l-1" vertex="1"><mxGeometry x="105" y="100" width="290" height="30" as="geometry"/></mxCell><mxCell id="tUZkC6LxxE1odkEbu_5l-5" value="&lt;b&gt;Azure Blob Storage&lt;/b&gt;" style="verticalLabelPosition=bottom;html=1;verticalAlign=top;align=center;strokeColor=none;fillColor=#00BEF2;shape=mxgraph.azure.storage_blob;" parent="tUZkC6LxxE1odkEbu_5l-1" vertex="1"><mxGeometry x="110" y="200" width="50" height="45" as="geometry"/></mxCell><mxCell id="tUZkC6LxxE1odkEbu_5l-6" value="&lt;b&gt;SQL Server&lt;/b&gt;" style="image;aspect=fixed;html=1;points=[];align=center;fontSize=12;image=img/lib/azure2/databases/SQL_Server.svg;" parent="tUZkC6LxxE1odkEbu_5l-1" vertex="1"><mxGeometry x="320" y="320" width="68" height="68" as="geometry"/></mxCell><mxCell id="tUZkC6LxxE1odkEbu_5l-7" value="&lt;b&gt;Azure MySQL&lt;/b&gt;" style="image;aspect=fixed;html=1;points=[];align=center;fontSize=12;image=img/lib/azure2/databases/Azure_Database_MySQL_Server.svg;" parent="tUZkC6LxxE1odkEbu_5l-1" vertex="1"><mxGeometry x="100" y="320" width="48" height="64" as="geometry"/></mxCell><mxCell id="tUZkC6LxxE1odkEbu_5l-8" value="&lt;b&gt;Azure PostgresQL&lt;/b&gt;" style="image;aspect=fixed;html=1;points=[];align=center;fontSize=12;image=img/lib/azure2/databases/Azure_Database_PostgreSQL_Server_Group.svg;" parent="tUZkC6LxxE1odkEbu_5l-1" vertex="1"><mxGeometry x="210" y="320" width="60" height="68" as="geometry"/></mxCell><mxCell id="tUZkC6LxxE1odkEbu_5l-9" value="&lt;b&gt;Cosmos DB&lt;/b&gt;" style="image;aspect=fixed;html=1;points=[];align=center;fontSize=12;image=img/lib/azure2/databases/Azure_Cosmos_DB.svg;" parent="tUZkC6LxxE1odkEbu_5l-1" vertex="1"><mxGeometry x="280" y="200" width="64" height="64" as="geometry"/></mxCell><mxCell id="tUZkC6LxxE1odkEbu_5l-10" style="edgeStyle=orthogonalEdgeStyle;rounded=0;orthogonalLoop=1;jettySize=auto;html=1;exitX=1;exitY=0.5;exitDx=0;exitDy=0;" parent="tUZkC6LxxE1odkEbu_5l-1" source="tUZkC6LxxE1odkEbu_5l-12" edge="1"><mxGeometry relative="1" as="geometry"><mxPoint x="1080" y="340" as="targetPoint"/></mxGeometry></mxCell><mxCell id="tUZkC6LxxE1odkEbu_5l-11" style="edgeStyle=orthogonalEdgeStyle;rounded=0;orthogonalLoop=1;jettySize=auto;html=1;exitX=0.5;exitY=0;exitDx=0;exitDy=0;" parent="tUZkC6LxxE1odkEbu_5l-1" source="tUZkC6LxxE1odkEbu_5l-12" edge="1"><mxGeometry relative="1" as="geometry"><mxPoint x="750" y="180" as="targetPoint"/></mxGeometry></mxCell><mxCell id="tUZkC6LxxE1odkEbu_5l-12" value="" style="shape=process;whiteSpace=wrap;html=1;backgroundOutline=1;" parent="tUZkC6LxxE1odkEbu_5l-1" vertex="1"><mxGeometry x="630" y="230" width="240" height="220" as="geometry"/></mxCell><mxCell id="tUZkC6LxxE1odkEbu_5l-13" value="Azure Functions" style="image;aspect=fixed;html=1;points=[];align=center;fontSize=12;image=img/lib/azure2/iot/Function_Apps.svg;" parent="tUZkC6LxxE1odkEbu_5l-1" vertex="1"><mxGeometry x="718.7" y="300" width="68" height="60" as="geometry"/></mxCell><mxCell id="tUZkC6LxxE1odkEbu_5l-14" value="&lt;b&gt;Vector Store&lt;/b&gt;" style="shape=cylinder3;whiteSpace=wrap;html=1;boundedLbl=1;backgroundOutline=1;size=15;" parent="tUZkC6LxxE1odkEbu_5l-1" vertex="1"><mxGeometry x="1130" y="205" width="240" height="230" as="geometry"/></mxCell><mxCell id="tUZkC6LxxE1odkEbu_5l-15" style="edgeStyle=orthogonalEdgeStyle;rounded=0;orthogonalLoop=1;jettySize=auto;html=1;exitX=1;exitY=0.25;exitDx=0;exitDy=0;" parent="tUZkC6LxxE1odkEbu_5l-1" source="tUZkC6LxxE1odkEbu_5l-17" edge="1"><mxGeometry relative="1" as="geometry"><mxPoint x="1260" y="460" as="targetPoint"/></mxGeometry></mxCell><mxCell id="tUZkC6LxxE1odkEbu_5l-16" style="edgeStyle=orthogonalEdgeStyle;rounded=0;orthogonalLoop=1;jettySize=auto;html=1;exitX=0.5;exitY=1;exitDx=0;exitDy=0;entryX=0;entryY=0.5;entryDx=0;entryDy=0;" parent="tUZkC6LxxE1odkEbu_5l-1" source="tUZkC6LxxE1odkEbu_5l-3" target="tUZkC6LxxE1odkEbu_5l-17" edge="1"><mxGeometry relative="1" as="geometry"><mxPoint x="250" y="540" as="sourcePoint"/></mxGeometry></mxCell><mxCell id="pVZQGQJ02PxNc-GWPk8h-1" style="edgeStyle=orthogonalEdgeStyle;rounded=0;orthogonalLoop=1;jettySize=auto;html=1;exitX=0.5;exitY=0;exitDx=0;exitDy=0;" parent="tUZkC6LxxE1odkEbu_5l-1" source="tUZkC6LxxE1odkEbu_5l-17" edge="1"><mxGeometry relative="1" as="geometry"><mxPoint x="810" y="470" as="targetPoint"/></mxGeometry></mxCell><mxCell id="tUZkC6LxxE1odkEbu_5l-17" value="" style="shape=process;whiteSpace=wrap;html=1;backgroundOutline=1;" parent="tUZkC6LxxE1odkEbu_5l-1" vertex="1"><mxGeometry x="480" y="584" width="660" height="250" as="geometry"/></mxCell><mxCell id="tUZkC6LxxE1odkEbu_5l-19" value="" style="shape=image;verticalLabelPosition=bottom;labelBackgroundColor=default;verticalAlign=top;aspect=fixed;imageAspect=0;image=https://codefactorygroup.com/case-studies/wp-content/uploads/2021/05/apache-kafka-1110x550.png;" parent="tUZkC6LxxE1odkEbu_5l-1" vertex="1"><mxGeometry x="840" y="640" width="110" height="54.51" as="geometry"/></mxCell><mxCell id="tUZkC6LxxE1odkEbu_5l-21" style="edgeStyle=orthogonalEdgeStyle;rounded=0;orthogonalLoop=1;jettySize=auto;html=1;exitX=0.8;exitY=0.8;exitDx=0;exitDy=0;exitPerimeter=0;" parent="tUZkC6LxxE1odkEbu_5l-1" source="tUZkC6LxxE1odkEbu_5l-22" edge="1"><mxGeometry relative="1" as="geometry"><mxPoint x="812" y="210" as="targetPoint"/></mxGeometry></mxCell><mxCell id="tUZkC6LxxE1odkEbu_5l-22" value="" style="ellipse;shape=cloud;whiteSpace=wrap;html=1;" parent="tUZkC6LxxE1odkEbu_5l-1" vertex="1"><mxGeometry x="620" y="40" width="240" height="130" as="geometry"/></mxCell><mxCell id="tUZkC6LxxE1odkEbu_5l-23" value="" style="shape=image;verticalLabelPosition=bottom;labelBackgroundColor=default;verticalAlign=top;aspect=fixed;imageAspect=0;image=https://allvectorlogo.com/img/2017/07/openai-logo.png;" parent="tUZkC6LxxE1odkEbu_5l-1" vertex="1"><mxGeometry x="684.8" y="75" width="110.4" height="60" as="geometry"/></mxCell><mxCell id="tUZkC6LxxE1odkEbu_5l-25" value="" style="shape=image;verticalLabelPosition=bottom;labelBackgroundColor=default;verticalAlign=top;aspect=fixed;imageAspect=0;image=data:image/png,iVBORw0KGgoAAAANSUhEUgAAAaoAAAB2CAMAAACu2ickAAACeVBMVEX////mUm8aGhoAAAAWFhYYGBgMDAzt7e2EhIQoKChWVlbqU3Hj4+O4uLj6oQDXTGjR0dG/c/LExMSlpaVPT0+bm5vW19c6ICURERFubm6IiIisrKz404UABQD5+fnz8/OiZcvFQ1/26aAAAAw+Pj4AAgBISEhlZWWbOU2paNSkZrrm5ub5tjH/wHEzMzP/pwDwn6XRR2e/RF1XIy7Xho7Pjt7Tg6LCdOjWhZXGd/y7cezaXJj/y1347LL44Zj9vWH7s0NZOQ3ytYjyrafpdnzrhYDpa3jxmSfunIdIHibqlFVvLDmyQFjjjnS2b5fqe30iERXZh4HnvcrZodTKfM2jZKjJheKCMUKQWbNCKlDNfsTQgbdeOnXEd+LRY7LNaMjgVoWqPHoeIyqLfVVqYkXCpm3lyYNaVD2RaTyEd1FrVTyul2TtyoD/zXvMl1R6TzHBs3u2hlXjtFA5MyX/2kZGMh7WuXSLgWYOBhv/0lCabV12SRnGwq778sq9rIDot3LikjotDwD++N/czpH4yo9yTEmqbyUcIzfDmEf9tniGYh2kgSRaPSAvIRNgPz6HUA3RjGf+roPmnzE0IxrUq37SfRO4dhJiRjtJJgDsj2nEb23skUj/v6TuiFXBg32DRTjAjnS4djeyZ1PFb0W9gILJZV2MVz9wN1SiNXqmanOVUj9rVGOaN47Kobny1dWNQEuXNZ3nvtKTWmmcYoVJDx2NV3iQVpHneJKLN8TWmNHZmKDsubVOMkV/T5OjVdhpQUNQM1+UNOePTJdhKYGjbMGKZI5oQ34AHxydK0Q+AABLKF6AQXaHPLk8HzTbZ7mDOlzdebM9FCaITSXtgPhiAAAVOklEQVR4nO2di18Td7bAMzlhIAwwgEACOpDwygQkSoIIcdWCvMIECErIA1Cp7dbWWrvrspfV6720VaxuEVtXW9TaW9tb5db6BG9RaFm7xd1b2bb7F93zm5k8eCpqTQ3z/SiQEMgw35zzO7/XRKVSUFBQUFBQUFBQUFBQUFBQUFiIbIs2tTi2ODvSx6GwCLHFGVnx8fkAoM235K8ojlV0/TpZmfkiSOx6SfocY1qhyPrVkWoCeOnl364i7HolN/edd17erSe64lMjfWgK4WRg0st79dXXXtsjunp91abc3Ny9b+x7LS8PIC1BFRvpA1SQyIkT092rb775zpu5uZtEW+hqU8nvSl7brcbvZGUqofWrICMGbbzy8utEEImm3ICrVSUlv/l9yW6iUa+0Wb8CUtHEfinxBeNJ+rwJVf2hpOR38Ao2WYkqVXFcYXGkj3Y5k0xj6ntd1vQ6IgaX5GovqtqMrv7Ysx8sqgwLqJVGK3IUA2heFsVs+uOuf4sz7e+NeeWlXVKQiar+VFKy9/U/bjoA6ZaDVVmRPtzljAleel1Mern/npydvXHjoUOH/oN0q17Zg2Xgf6IqzIAlq/ZuqnbBe31vZUT6cJcxqbD/t6KojW+Tm6R4ePvQoY3v7NoP+3ft2f2GrKpk0+Ej0N8HET7aZU0m7CE1Xy6Kys7OVkl1Ht54e+Oeo1ht7H73T384dqxk1bFVhy/k9fUrqiLIClPmrjdzNx56e2OuDKbAjRhjbx/K3XMK8o7/+U/Hjh0uOXa4+sjB04MQG5cW6SNexmQXZ73yJnG0aZPUqwrxznsQM/DnN44hhw+fGKw/DmmwMtLHu7xJ1u7JXbV3M7J376owX3s378vLGzj5/vvvVx+uJqryoDDSx7rcycl74wVk9Wry8YXNe0ntvmrV5s2/+c1gHhxAVYcPV+v6Tw/qB5T8F2kS4YOkEKtf2Pz7zb9/493d7/Uc7Mk7dfL9k3+prj7Rf7pqsCo/0keq8GL/5s31YbbOHPxoYOCjwcGDehqOvP/hX6rPO86cGThdBcq4baRJ/yip/lh19fnqAO83nqtfg9Tn0XDgw4bzDY4zB6uSqiA90ke6rCHjeonQRIKq7xiWEOe3bNly9+7dLWtrh+qT6gdoGvbvb2hw9OedSToISmMVQXIssUTVWSKGUF9f39fY0IC+tjTUnuvPo9GV7nyLbqCqPglDTKVSKRMiESIHMsmoxdmWlpqWoY9Py41V/bnatVswsPqIK7iwpUaX15/UXzWAjVWGSXEVGXLUUBwLcKGlpqamrq7O+cmZekJSfVMrumqpP5hHqy846n6uqq8fxMYqawWkKaoiQzFAugngv87XElMI3zMoyhJd1Q6dwbCKcVo1xODpAbgPEBfpQ16uJMJBAMxx1dUNkqo6a2/PaaLqXMuWtWtb+mi6wFMn9OMd/QPAOY3Cikgf8jIlx1LVp6fpvLMN56sbalEUVUdRP0N/fR+GVS1mwM+Ac7FDffV9xwfywEMxrCs50se8PMnJhE/PDdCcg61pbUBaKIQxgubTvr6+odq1a2svAggfn8OKIq+A5hmKcZIyROFZkxhngZ5zjado+IRh2TIiq7aOuBLwbgRVrb0G8NmnPeCycS4ng99zgJIAnzWpWRoAUH/a+JmLhk/rGLZUDiwMHSve09hIVJXpCrQHwcWzGkcpw1IMD3SkD3z5IC4Qi11ZCFBA5506OdR4jYYTQ0MMxZayrSirliRBHXzR2NiIqj7naDUtsKU2gaJ4K6bGgsRI/wHLhnStSpWdno9Vn140NfTfApd3oXUIBYmuamvRFeOAL4aGSFt1AkjiY6xGxio4mVKdMrn4zEgGrWqFGiDv4EENDJxsajrbrYcLTWVNJ+tEV2dRVW0dqtrX1DSEQQU0x2ITxbAeB8sYdaCsL3tmWN7TawF6dp871wOnWompS3BgS0MzfkkRV3UttS0tLVg8fNHU1IRBVcB5WMTj8jCMk+NASX/PiuSezwBi9p1sbNwHpy60tjZfvqwdbr3b0FzR2kraqNLSGjRVU6eDA62trWtvAqfjnVZeZ8MEaCtwuJRFS8+MuP85CfovTn7ciJ8+by3rvnz5y7utd+6WNZeXtdZKKbCmpaYGK8BhNDXM0ZyHFziHFVsq0F37RFlc8cxIhKYP4cBFLCY+hOGy5itXrnx19U7Z1q2oqqKsTAqrupqammswUIZgQ6XX2XjKyHMo6uLFT5SpxWdFOjZPp05cuNjUdBFulqOp7q+ubq24sXVrhbu5oqKilqgyXqupq3PBzYqK4ZgCTme0Oj06vcZx7dq1i0N6rbK/4NmQDnDkgvrA59gKnegtd1+/V15+9Wr5nRtb75S7m8vLK1owA5Zahbo6K7jKy2/qORocOoDeb69dE01dhDhVcla6Mgfyi5MFdMHw8PjwcFnZ55pb9667vyq/cWNbx40bX5X73R3l5eVEFcujKhvcKh/H7Nd78+bw8FkRLN2HejQJcTAywiVE+i+JdtJBo9ZXDN8cxtx2ZHz7dffYWMdXNzq23di2raPI39HRUV7joRijy1nnhOlRVwFd4Pq8rKxVBAv3Jgyq9EzgWUEozIn03xLdJAKM6mLKb91q/rK83HX7gde/bWxs2zb/NjTlR1X+jv+9JjCMzcXW6TgXh8nvRAUpLYKqGj4sjAOeceoolyldabN+ORIALnW4dB2jzaO3OsqnH3zt94/5x7aNoaoxv8Htb/N3OMHJCOCps3Fk6QspLCrK7my5cwdFNWzZ0nAE8kFgjB4bwwOAJk5Jg78Aydmq7HgY9/s14x3NzePNHaPffW1ua1vXNja2rm0b/jcUtbe13XI5jDZO73ChKY4bxzKjouLOnbtbt169evXu3TufE31W1uhwMqzR6tEBl6XUF0+dLNJQ9brb3Nyk3+3u9fvHvV93tbe3d61b196+bt06g6G9q/22i7PpSDyhEnr8FlaESMWdrUTVVgwtdGMDI8vbKMZqZRiW10Oh4uopk5OpSoiBiaL2Ihhtc7vB7T/19TddIqgLlZkNXV0/FHC0GE4cqEebOzokUxUoi9Da+i3onAznYQWeYaxOcQDXBvlKffF0KY5XpcFkl6GrCCa6itxQ1Db9V/t6ka4u/Ne13uCdBiIJON/kD7dJMRhQVSEXFifAxqIjnhKcDMNbyXQwQwlgWuKhxEoohhcgw5IItMFsXm/gJtYXFYGhy/fXlBB284QPJU37Jqfu3bvnxf/33O7mgCrJ1REQxEUXDOMUGMpDyTiWOHuVU5gv8oSrM1aaJKKvDE0GC0zazeYUu36q0uwFs/m7b0RJlYh3ahLAN4XpESuLtja/H2tBt/v2vduiLVnVCcmUtESGYkNfu7RLOpJYrV6DQPyT/UFxIDWp0VeDJkMB7SWqKo9OVtq94BVVVeKXUz7wdU4YxEarrU1WRXrDHVgpumVZZcMucFDzwniWFlaxWo0a0YepSk5MTFzqKY8D8lvUUakKpsxmsyGlsnOaqJqwozHDxGTv9OSE10AoQtwykim5riCqbnLYTs2viioNW2lWmLYw+dLawTmqcjLJlezUS5xajmJVH4GBqLJXejUpqKrTrjZMAjc5YQhSFJLV7G6WEGVV3NQBCGTKflY8IWJYWYIFO9D6BZG30M1RZYIYvK1Z4tLC6FWV+h6HtQOqSrH7DCkGbnq6AFsns4H4s9tTUqRSEJNgIAP6Sf4bHUdc+JrXOeeIohh+pNdjZMhas2A1R8eoF2QBVakQ+P6SrrMVvapMp97zphjsBnNKimEyxeziCqYniCd7oAS0i6ra5fZKbq5ujbpIAe/gqXlMnY2/mnTcZcTecGjL6WOoWhFUtaQmL3pVaXUHOlMwqgyoxeu1+7ipME8YVJImMmyBjI2NdTTf+nJcxwGn1wnWeURRFLs1/m5f/QDPUGxoXviJVC1pxW7UqioGVxlH2irMgCmVXp/Pi8VgUNPfJiZ8nHx54enxH77//vtx6YZO4FmpQZon/a20NJdd5LCLxYSamYAqPT2XhybAJZ31qFW1ErjmbycqDWaSAc1crzcgan3733xiz9cbLCymaJTE6R2CkxhZoOyjGOf9dNOX2jSiyqMNNDOyKn185lxM0jXPlLJicdJh/FbztB2jymtP8XFee0DU1PTRKa8XFQZqwCkXNk4uHV/Kzh9NIWz309LSMz0M2TQSyICyKlhkT888xToJYPUSN9dFrSoT3B71j0+kGAwTnaRSlwYqzJP6KW+oWjebu4p8pIzgjQ/TJMLbHCM2MhTICBb5eR5HFeZA7AIv9TKD0aoqOx/c421tnN1u8HIFnF0S1enzyorsdmkgsBNF6eYr9+bPgXLHiqWs9+UnejxVj0PUqrJA0W1v1xQWgVO94BVjyjtJRKElUmhUYrXu9fViE+WZ29V9mDGr4HyyqHocolaVNq+oayrFznkr9dxUJYmgKdKtskvDtSmGiclpTuxBGZcqirhyButsRdWTkq3tNa+fNFd6p+2d0yTZ2TGizCkYSwZvJ0oaGB8dRVmcZ5HcxzgX1MjoAi2NoupJIarshonKlMlObycGlZ2IspunfOO+S7dvu8nYxL1JLCdmuGBZo5ENqwONwlxJkqm/z+5XPU1VxQkis++OXlVgSEnpNFeae31myRQ2TZqpojYZf9GEvmCmKcrICy6XQ7AGZLE2fp6wwrv+HrpK/uOoSo2TyJh9h/h1plbsjKszZ+0UmkfVSvnn4p7n98TAsmJq/XpDZ2WlFzD/mQ12w9Hee9JYEjFV5L0+DZ45FshCFwFspZIh1uqa6UqsAI3/yFwZWgnzOKpWyOMkwfObLt+BjzUBLT5araEhf0YAzVWVCAGe6+ufFMLRrq71nRha2FTZDeYJbqorgMHw4MH1SW7+mUOGsdo4q2TI6HQIpcGEyLDWv/Oeb7NmdIgeT1X4EKGKqBLlaFSp2sCgk/gTMy5EOEdVIsiDWs/5pso4+OHejh0Gn71y0o5B5YUJcQVMe5fZ8OC7zv/zvcjR1gWKBoby6KWCwmg0ehweo5wO+RPp6fn387MSw1eXPU1V6litXh2OXh32spitKlmvkU091zFFTse92zt27PhhqnLCkGLw0lNYBXZ1mb958N1R+EiYnPRxtkVqP14nt14IL/BWo9MjuCA/TgOcCyAtbCVKQNUiYw+PqkqtNtFi5qP1geF6OuxarLNUFatlrc/9xU9S4dL27ehq3DuB3eBJ3/r1Xe3mrx902jzODTvwxgQs1qFiPB4m6EqCopw2F5YcWMO7wl7GsqqYGM1s9FpZ36Or0pNBXK0pMw1o2VXYlNZMVbGFdHTElEqVw03/czthutNn9+qLdrSvwxbqkpXa0CUOKU0usMZFhtXJCyvYUuKplBUTIyv2whg+rA0JTILMVaVZuioMI0tqcbYqpzheDhm9JfhMM1Rlx0Mgpp7/xb5al2jqnz8AZ/D6drStK3pwnWeY7WKTZbcf9Sw6SsHwi3yfEUI5Z+GpxcdRBcGdQaaAimCynaEq+O1ouFZrFnRvQLb/8xJMT7h3+P3Xr+9kKEyJO8ja2iLuIQNKRtdC65UoqtT2C6nSh9ZY50g/pA7NN4erygyYWupC318lGfDjBolpeny7v6Po+mWKIq0XUlR0hVvYhAjrWOQBQqg6fqqqwq+PkSU/KPhUYaqCj4+OpbbZhSCr+hF023/yX7myk9op5sQrV65089zipijKM+9IhTgJwnhCW+4DqmiYQ8xSVWk0Ye3OSvlBwaohpCoRpIijo2WjQzrwsiuXfvtPP125wlLoqXv75e5up5PXP2xA3WmbJ9TwB3mWsf4cqs1lVXRm1lzkl/wjq5rRlU1YSFVsstz1hajZ8poTI+xET90krH5EVZcZDKru7u5SirU6edfDVBk9c1YCMs6848erehz73u2JD7z+n2IXeNYKJpBfA4HbAVWJajmm0qLn7TqzwLlz585ufsPOAt1PP13uZtAbisKa22h9BFXO2eU8w/YO9n2w+oMPNm98N3ian6qqGesCF1CFaVL6ZImKdkoGbAy68lzq9sCorKpUzGNGo/Xhqoxkq+IMUz/3fLCasFe1tydQej17VXLXVxMtDZXICnASVwItaPTNoiprQINx8R4wRS4QYxRsodUxDOXsrZJMrV799sbBJ5mwfyJV+mCXKv757/wGyU7D2CnFuOI4Tne5m9qwITC7gRoeUqyTxxh5nWAUH8eyvGNgsD4pSVZ1uP9F+TmeuSpIyCyQXT3vg3/hJAOpuHfudLoKCqa78YuAH7RQ+ghhhW2ajdM53noL7t/vOS29HcWaNWs2q1ZHUFVxDgSG1J/vyY+ZrASpjNvJO8CG8RXyYJ1np8cspGFa6wgZZTNB1enQW12tXlMVGNCJQFSpMoLTH9F0SUnTiBRI5DIGtjBV2EV6mCkproxGTyaZxRN6Toe9KdmagcAZjISq4AYFjSaKLtSfkz8iRw9jddl2LnEhGSuqiiN1v0c4E6aqPnhWI6IqOAao10ZP30pVbAlMITKMRz/fYNFDbLH/QAtqWudxnFmzJhBU/b2BnduRUaUKzFbp1VFUsidoQ/vknTahdImyGCdplcDG6zzCvjP1pKxISjpj8wTcREhVgjbQXEXT+2pl3BeoYGDxgudhVfpMU6U6cmpMI0arw+a5ZPvX8cHBwX/ZeCHCqrD1VEdhGVicPxJcls4wVo9zofUv85iyalckZ5ATw6Nmh84meHjeI9gEOkb+5ZFSFbb3MZqurJtjcoVKc4ZMwj+qKuw8a4CzrIgtdJFVtywvEDyl1uCAd8RUqUxyTzgmqkp2VTq39P0e4lvvcA7BI/wM6amcTXw7A3G6iqEcllm7FiOgKscir7/QqJe6VetXTUYhPPIuqpAqh80qLqj1QEIqiJEp3mRH5uywj4AqVUaMXFroo2qQHc+PBZxLjyz8ASNlZUfiVMUmjmNZK+KBtNDLOIKqQqUFbYmiMhCJTdf+zLNLDy0nz/JkxCInzUGRq69b4lPDTkxgdn4xVXrpIcH3QFhwzfrMqUWJMFUSYQvZs4KLA6JiOUwYOYn5MEK2/crX35mfMJnySgpMgKlkscZIqZGxqmdKSZRZJAVlyw8JmsmQ7yiefceM7QTyfcGnS5bvCOvzBn5zYuLK6AorQk56PAcjTqfVyD6cUsx2LGsUnFK9l2rRclbnYvGj8FTJjk3ISsu3WHSPgFatxQ/aQrkNyYnNdEXFGsnniezihISMRyQhbEQ0J31lFI2PKigoKCgoKCgoKCgoKCgoKDyn/D/aWVFw7dcjXgAAAABJRU5ErkJggg==;" parent="tUZkC6LxxE1odkEbu_5l-1" vertex="1"><mxGeometry x="780" y="730" width="196" height="54.29" as="geometry"/></mxCell><mxCell id="pVZQGQJ02PxNc-GWPk8h-0" value="" style="shape=image;verticalLabelPosition=bottom;labelBackgroundColor=default;verticalAlign=top;aspect=fixed;imageAspect=0;image=https://cdn.confluent.io/wp-content/uploads/confluent_cloud_apache-300x228.png;" parent="tUZkC6LxxE1odkEbu_5l-1" vertex="1"><mxGeometry x="570" y="625.31" width="216.7" height="164.69" as="geometry"/></mxCell></root></mxGraphModel></diagram><diagram name="General" id="oOGJ1KJYfSfGqDxms_qC"><mxGraphModel dx="893" dy="563" grid="1" gridSize="10" guides="1" tooltips="1" connect="1" arrows="1" fold="1" page="1" pageScale="1" pageWidth="1100" pageHeight="850" math="0" shadow="0"><root><mxCell id="0"/><mxCell id="1" parent="0"/><mxCell id="AC2di_rw5O5Xkf_cVBj8-1" style="edgeStyle=orthogonalEdgeStyle;rounded=0;orthogonalLoop=1;jettySize=auto;html=1;exitX=1;exitY=0.5;exitDx=0;exitDy=0;" parent="1" source="99Vh0avSpj1J6Xcuv-CY-1" edge="1"><mxGeometry relative="1" as="geometry"><mxPoint x="590" y="330" as="targetPoint"/></mxGeometry></mxCell><mxCell id="99Vh0avSpj1J6Xcuv-CY-1" value="" style="whiteSpace=wrap;html=1;aspect=fixed;" parent="1" vertex="1"><mxGeometry x="70" y="150" width="360" height="360" as="geometry"/></mxCell><mxCell id="99Vh0avSpj1J6Xcuv-CY-2" value="&lt;b&gt;Unstructured/Structured Data Sources&lt;/b&gt;" style="text;html=1;strokeColor=none;fillColor=none;align=center;verticalAlign=middle;whiteSpace=wrap;rounded=0;" parent="1" vertex="1"><mxGeometry x="105" y="100" width="290" height="30" as="geometry"/></mxCell><mxCell id="99Vh0avSpj1J6Xcuv-CY-4" value="&lt;b&gt;Azure Blob Storage&lt;/b&gt;" style="verticalLabelPosition=bottom;html=1;verticalAlign=top;align=center;strokeColor=none;fillColor=#00BEF2;shape=mxgraph.azure.storage_blob;" parent="1" vertex="1"><mxGeometry x="110" y="200" width="50" height="45" as="geometry"/></mxCell><mxCell id="99Vh0avSpj1J6Xcuv-CY-5" value="&lt;b&gt;SQL Server&lt;/b&gt;" style="image;aspect=fixed;html=1;points=[];align=center;fontSize=12;image=img/lib/azure2/databases/SQL_Server.svg;" parent="1" vertex="1"><mxGeometry x="320" y="320" width="68" height="68" as="geometry"/></mxCell><mxCell id="99Vh0avSpj1J6Xcuv-CY-6" value="&lt;b&gt;Azure MySQL&lt;/b&gt;" style="image;aspect=fixed;html=1;points=[];align=center;fontSize=12;image=img/lib/azure2/databases/Azure_Database_MySQL_Server.svg;" parent="1" vertex="1"><mxGeometry x="100" y="320" width="48" height="64" as="geometry"/></mxCell><mxCell id="99Vh0avSpj1J6Xcuv-CY-7" value="&lt;b&gt;Azure PostgresQL&lt;/b&gt;" style="image;aspect=fixed;html=1;points=[];align=center;fontSize=12;image=img/lib/azure2/databases/Azure_Database_PostgreSQL_Server_Group.svg;" parent="1" vertex="1"><mxGeometry x="210" y="320" width="60" height="68" as="geometry"/></mxCell><mxCell id="99Vh0avSpj1J6Xcuv-CY-8" value="&lt;b&gt;Cosmos DB&lt;/b&gt;" style="image;aspect=fixed;html=1;points=[];align=center;fontSize=12;image=img/lib/azure2/databases/Azure_Cosmos_DB.svg;" parent="1" vertex="1"><mxGeometry x="280" y="200" width="64" height="64" as="geometry"/></mxCell><mxCell id="AC2di_rw5O5Xkf_cVBj8-2" style="edgeStyle=orthogonalEdgeStyle;rounded=0;orthogonalLoop=1;jettySize=auto;html=1;exitX=1;exitY=0.5;exitDx=0;exitDy=0;" parent="1" source="99Vh0avSpj1J6Xcuv-CY-10" edge="1"><mxGeometry relative="1" as="geometry"><mxPoint x="1080" y="340" as="targetPoint"/></mxGeometry></mxCell><mxCell id="AC2di_rw5O5Xkf_cVBj8-3" style="edgeStyle=orthogonalEdgeStyle;rounded=0;orthogonalLoop=1;jettySize=auto;html=1;exitX=0.5;exitY=0;exitDx=0;exitDy=0;" parent="1" source="99Vh0avSpj1J6Xcuv-CY-10" edge="1"><mxGeometry relative="1" as="geometry"><mxPoint x="750" y="180" as="targetPoint"/></mxGeometry></mxCell><mxCell id="99Vh0avSpj1J6Xcuv-CY-10" value="" style="shape=process;whiteSpace=wrap;html=1;backgroundOutline=1;" parent="1" vertex="1"><mxGeometry x="630" y="230" width="240" height="220" as="geometry"/></mxCell><mxCell id="99Vh0avSpj1J6Xcuv-CY-11" value="Azure Functions" style="image;aspect=fixed;html=1;points=[];align=center;fontSize=12;image=img/lib/azure2/iot/Function_Apps.svg;" parent="1" vertex="1"><mxGeometry x="706" y="290" width="68" height="60" as="geometry"/></mxCell><mxCell id="99Vh0avSpj1J6Xcuv-CY-12" value="&lt;b&gt;Vector Store&lt;/b&gt;" style="shape=cylinder3;whiteSpace=wrap;html=1;boundedLbl=1;backgroundOutline=1;size=15;" parent="1" vertex="1"><mxGeometry x="1130" y="205" width="240" height="230" as="geometry"/></mxCell><mxCell id="AC2di_rw5O5Xkf_cVBj8-7" style="edgeStyle=orthogonalEdgeStyle;rounded=0;orthogonalLoop=1;jettySize=auto;html=1;exitX=1;exitY=0.25;exitDx=0;exitDy=0;" parent="1" source="99Vh0avSpj1J6Xcuv-CY-13" edge="1"><mxGeometry relative="1" as="geometry"><mxPoint x="1260" y="460" as="targetPoint"/></mxGeometry></mxCell><mxCell id="AC2di_rw5O5Xkf_cVBj8-9" style="edgeStyle=orthogonalEdgeStyle;rounded=0;orthogonalLoop=1;jettySize=auto;html=1;exitX=0.5;exitY=1;exitDx=0;exitDy=0;entryX=0;entryY=0.5;entryDx=0;entryDy=0;" parent="1" source="99Vh0avSpj1J6Xcuv-CY-1" target="99Vh0avSpj1J6Xcuv-CY-13" edge="1"><mxGeometry relative="1" as="geometry"><mxPoint x="250" y="540" as="sourcePoint"/></mxGeometry></mxCell><mxCell id="99Vh0avSpj1J6Xcuv-CY-13" value="" style="shape=process;whiteSpace=wrap;html=1;backgroundOutline=1;" parent="1" vertex="1"><mxGeometry x="480" y="584" width="660" height="250" as="geometry"/></mxCell><mxCell id="99Vh0avSpj1J6Xcuv-CY-14" value="Azure Stream Analytics" style="image;aspect=fixed;html=1;points=[];align=center;fontSize=12;image=img/lib/azure2/analytics/Stream_Analytics_Jobs.svg;" parent="1" vertex="1"><mxGeometry x="638" y="680" width="68" height="57.99999999999999" as="geometry"/></mxCell><mxCell id="99Vh0avSpj1J6Xcuv-CY-17" value="" style="shape=image;verticalLabelPosition=bottom;labelBackgroundColor=default;verticalAlign=top;aspect=fixed;imageAspect=0;image=https://codefactorygroup.com/case-studies/wp-content/uploads/2021/05/apache-kafka-1110x550.png;" parent="1" vertex="1"><mxGeometry x="774" y="700" width="110" height="54.51" as="geometry"/></mxCell><mxCell id="99Vh0avSpj1J6Xcuv-CY-21" value="" style="shape=image;verticalLabelPosition=bottom;labelBackgroundColor=default;verticalAlign=top;aspect=fixed;imageAspect=0;image=https://miro.medium.com/v2/resize:fit:800/1*qn2gItW3lIvbDtrKlQgtww.jpeg;" parent="1" vertex="1"><mxGeometry x="910" y="700" width="160" height="74.01" as="geometry"/></mxCell><mxCell id="AC2di_rw5O5Xkf_cVBj8-4" style="edgeStyle=orthogonalEdgeStyle;rounded=0;orthogonalLoop=1;jettySize=auto;html=1;exitX=0.8;exitY=0.8;exitDx=0;exitDy=0;exitPerimeter=0;" parent="1" source="99Vh0avSpj1J6Xcuv-CY-22" edge="1"><mxGeometry relative="1" as="geometry"><mxPoint x="812" y="210" as="targetPoint"/></mxGeometry></mxCell><mxCell id="99Vh0avSpj1J6Xcuv-CY-22" value="" style="ellipse;shape=cloud;whiteSpace=wrap;html=1;" parent="1" vertex="1"><mxGeometry x="620" y="40" width="240" height="130" as="geometry"/></mxCell><mxCell id="99Vh0avSpj1J6Xcuv-CY-23" value="" style="shape=image;verticalLabelPosition=bottom;labelBackgroundColor=default;verticalAlign=top;aspect=fixed;imageAspect=0;image=https://allvectorlogo.com/img/2017/07/openai-logo.png;" parent="1" vertex="1"><mxGeometry x="684.8" y="75" width="110.4" height="60" as="geometry"/></mxCell><mxCell id="99Vh0avSpj1J6Xcuv-CY-24" value="" style="shape=image;verticalLabelPosition=bottom;labelBackgroundColor=default;verticalAlign=top;aspect=fixed;imageAspect=0;image=data:image/png,iVBORw0KGgoAAAANSUhEUgAAAf8AAABjCAMAAACi/PkAAAAAwFBMVEX///9GTlYYj/86Q0w+R1A8RU4Ai/9BSlIAif/z8/S+wcNvdHq2ubzg4eJETFUQjf/t9v9Fov9MVFzp6ep0sf+nqq6HjJHS09Wu1/9YX2Ymlf/U6v91eoD2+v8yPEao0f/a292BhotnbXPIysycoKSTyP9crv8Ahf9TW2LC3v/g7//u7u+OkpaIwf9/vP9hZ25bqv+82/+hzP/M5f8zmf+tsLSXmp9+vf9TpP8qNUBaq/9yt/8+nf+y0f+63f/o8v9jxEiZAAAR60lEQVR4nO1daXeqPBAW2dwAl7ovxa11rbZVb2/1vv3//+oFazZISECUe3t4zukXGyDkSSYzk5khk7ka/cV7a7p+Oa6n827/+tul+Kfwvv7oWDlNsyxN0zof06+kO5Tifig/Vp41KwvhTILcwzzpXqW4E15POPkXaNZxkXTHUtwBXw85P/uuENCyr0n3LcXN0epQ2f+WAS9J9y7FjTHVmOy7IuAptQR+MvrbXAD9rgSopIbAz0X/yKHfEQGVVAL8WPBW/1kCbNMJ8EPx4qPfcuH97Snpfqa4CdYe+i0t19kejxXNYw/mpkn3NMUN8EiudCv7MV30HVnfL79VSKPAeky6rylix6JDLvIT5uwpHz1WYTe5fqa4CfrEGresNfnvV8IrZJ3KyfQyxa2wJvjV3rz/f8/iDXKpI/BnYf5MbPCUs77ujpghqQrwk1Cu4Ke9WSq5XUI97KQ7wA/CC775PzPW9hznX0u9AD8HXdzyt5h7e4tolu4APwX9T1z6f7D9u6QZmPqBfwhaOK2dgAO+/hZrmQYD/BTgmr3f8sPRxVzBVvb9Xh1McUus8UX9ENz2Dd8pTvfpX4qb4gt3/HZ4MZ4f+GRp3aWDKW4KXKnTuEp9F/MDWrvUCfDPA3fsahV+e2K3WPPbp/i78YD4FNLo+qG2ixR/Od4xn452FLmiZYW9IsXfC9z18ywU20s6AVIB8E/jFV/Mv8SuWWAiw9retn9/KfLLmmE3m7ZRW0a5+oLYu4XhQQwnjP+d6Fom3MDTFg+UYKF8gYGxbQSOqAEaNrm9zI9BW3KgGT+Lo1ZaFUftWVVVpWp71DuMQ16fHxXP6NVEWhsl1lgVCvt6qWnQL7PEgBGZC/T84VjssMu0HAfPlHBReyAzMHAwG5ZsxqPrvy/NhtxeLjeXh/wmhig/uvw8YIxcMIxJdSArum6akgPT1HVFlkd7Vn9pqMv6GYOJSOvSb9ZQybKquuO1mYz9r5INjY74eY43UjgQGo1/RQqAqcjVUZ0qB+rqdxOlwe3kcqR/t1VJ/ouXn5UI/BvDmWz6+6vL1Ybw3ZabSwfMqogEKslBQ+VCV5WZ7/Gh6beEl7/HBoyf//NLyfqBIh8T5T9/UBQ/+5cpqzb4W9IZiFC1FKp5AJwVs7KJy0LTfwpznPsWlCUaC//u8FTrvguT5N/YqEHdVcyhkEbR1sEV+kjgAiH+3cdLE/xuYfnPhQrn6O/YSeKx8S+Zg553E0iQf3vG67Q6svm3GWN3kQVUR1H+nbs1sAkQkv6wWX0tcQ0gOv/upLbJC5Pj39B1sm+UnUAXkOg97Db6iP9ccf4lpYpeianw0xeuFbK0R79CuY+VpT2Rli5mqyYV/hGtkrtqCP7zsfKfL2JTVlfUCxRyUpjKiiPSDXIP4esMkH+R0ZrBd6rQcdp1tJzmy+nUQrtxWl4NwLltZ0d9JGVnMaQqFY7a51hX+IvpEkFTYvw30DJU1OKk0DRq9rhUX21kGZ8CpsphdEhIPoVvxgL+TcqQOaOl6sRozcD0KzPw9bV4XW89UsCywofynDzZgp+txeKL+kjazlJjwbD3w7aJrzVCSUqKf3sA+2MObaxHS2NflFB31X3wfYwquWpVrg8I8K8Pl7TRqg9nJiZS1JXQ68yfiOUb5RjnlbjDOtayIOOJgoZUxt0kSfEPl62y8S/w5mpw+bfK69bEY0Lw+QL8K8yW44mORmsg6I18wQO5tAjs9T+wQJBQxqMIjB58JXOGERWG/2J8/Ntg1eobqlvKbpw3Lb3N6xPYtMH9zDZPAED+A97Y6MFppW8497sAd+HmIoVx4CZALv7ikAf4SirmBkiIf7BszarNaFFyzAP2fwHqQJj3gBnA2zCE+MfVE0VIAPzCpLdViRbGhfkAgpIGogJOAFNCPybEP/DZqH6PFICxUeQC5zbQ9asahYt8M03ONWL8Z1ZgtNj7BIY5rgA+RyzrSJgA8QsASJQ0QFtuMvznYU8CDifzPW6fAOlKL5MBiiBv0gjyj3aWNt+p2CeUv6iZfIQGIBA5GBY2GHXlAH9Lhv8m6AlvsXIwA492ZPQebAXFYL4E+YdzSxrY3H4QB/idyMU8HnEN4AbJIIApvQeHKCH+Ly4Jk6ffcW5zMSLPamJtZqLJEABR/g1wP5nrg5zizlvxY38/MA1A+4x+Gxag6wMpycnwP46Hf2BEfjMEdEqOE1iUf+hYVnlhBUQpj6vK+T3eNhvMkAAgVQnLfyVM970ARuTFhqyBSALVDrpKmP8VUC44CmAZP7uzrGtKOZUxJ2B4FzIXtTYQaTb4KRn+bRH9j4sGcBJdjIieEGHC/MOhCfYpE+G7nHRPLggNIPaiYPAED52TJqT/A3cNV7YGoAYUNPmizTShEyioJ+H5D254xP3211bxKGOBQPHnAuR7fwn/0FgzZ0Ixm1T416fQji3M/0FInBAVnq1dmBeg4Q3PHopbAEAPvgwdAAnxD0S3pFfDnBrgWAL9HDkJxxd7wKwGbCvC/A9FPIoPZBGnq3U2QgDEXRAC7P+mYoOfEuJ/DN2r+kwkaI8CYO/j2zMQK0oAZaL8L4GyNGCfQJefiLCdXAzfc8FsSSsbczKQDey/WcL6P5JETmfk0ThK5gCNnj0wAQN8dqH9PwrzXuUPYvXHkr27uKEAOEALOWH/D1q95+6Ym0kt7BQA9BDnc8jAYTuBRfnfQGcZq8X7iTiyj6mG5xrXAGKNAshD8YhePSn+oev2e4xVuTgJJwXgUwmm4QwvMi8U5B+cLDL3kq81GfRjxfQpnzIWTBavADhAgwmNWWL828QEcKeAPitOCqJyoAm8/RviAmgTmkwnsBj/dXhCwdAlpyeyin8uthNb/DAhznoATRgBIqMxS4x/R1n3xP9KpiMGJGcOiEwB6Pr1mHrAsGA7bYT4h6ufGlDU7047ni86ag+xHdjfSAMomDSnS3L8Z5rU+H9dUeXemOcWbMLV6Zks0AfEzEYU4N/eIPOk7etKd/3R8Qbr5j5jjNfAQsksK66KQCUJSbTk47/OMEayVwRc7iSPJsEzAGxl6sH7H2BYML02vPi/fGEooW4NwFb5dMb21Hn2h3tb0QK+LuiXF933+euf6cvxs3LaZQnJYp1iOQYat5G+LeMxN0ny73DRZswAXR0MA26Xh9HDvkbAs2CyHEvoEHQ4bDRWh8NkUq/v96VSYVyqN4rmQEZiyUTzSzvD//Wms5oezenf73db04cPN4fgHO6vWZo/n8TqvJX7JEI+Jl/bF7Fcm+jx3/Hzn8nX2wojdUmp1pmKAOy13zZDUcoMJzDK/1C+cc47ueR/e9JPZCQj/LRD2R9hiXbnf9ZPJyvnyhJ3SgVl/+WsXQcH7Vhg6cxfKvaT4WyALzKPwzVh/h0UhopMzQI2ZVYsLwj7M2WKaw74gCSVfrF4/peJ0c/kX+tMQy3I/tf725Oz4F1hEkA6G9SKouz6D2Q+i2RKpGGUPP/OHUrDtmP++QlQZnTXawlY+T2KhMiDq2W64S7Mv1LFPdNULiwr9xTmkKY/n352clGZvzyTyr9o/qc3Q/Zv4N9BbTwp6m4dELK7un9/dzEL9PIhHxB1/xDjX1cGDUL60JjQsp/i7Je7b1vLuo77K/k35aJ3PMPw36MSHQv/ZxiF1Ugh5YBO2wIKUMWj3yY4EliAf1OXNyvPgynsW0fxjb+7rmSv5/46/hXZn0y7FwtycQGJNm/Ev4Nls96WVWzHorlfoO+H4ZkFPiB6IKAA/0qx5Jt2GAHnL3meHoQLPJTn6+yzP0f4zvwr+tBmjwb7lAMCRg9Jt+P//Jx6Gz8c8qkATXiK2awZFNQK0HVPcwIj/nUScNbpNLmBF/jqbNfvwicz78eTFcvCv4J/x9SRhjatd2CsBConQK27SiyO2Pl3nlRCioDfTQNTR6ttBgCT1E0N8l/tkYB1ZDwv+I1L7b3X/+bvIVxy5ceP5ygLP6DCHF3/R9mdJHS3ntpg1igwyBnDcxTuu4CAeE/K5g34d12D6IU8exYKYqZUcPDUcZApXWJKvBpMIlVE6gjx0V8cd6LkW86e4iCHXEwdFmj2P+Tf3Hgw6h32Nvt1DBAyxQ/EA8/w6NU34T+TB8fvvgTsiaCpc+4SRXtg73iFAKETHv3Wp8ar6nUu8OKwnnvOnipPx/Xbnz9/Xh3M5+8OunTQjgQh/yoshipWExV5UrmVUwr0g5Pb8J9pVsEbkX68Ja1OEAu0WR2g8aygaiCa9c/E17RjBbPvEt/ZVbYP67f/uteeHkH+5bBXgs2SmzeNwu1JQm7EPwzm9Uy3iXj5JomaXxzAP8qQ5WeeB2N9Cqjn5a55Z8V/TufdRUzHe9H5B9oU3wBgeF1uxX9dpXUM7QtCoLgIgiweAzqiFcGyDzQsfrGXvkt9tvIw/S/eL71E5x+6y3mpOPARA3JPuRX/Y6plAly/oruA30cQaPHCoE/Rwj9+LF68sSGIfOcfp+NrN/6v/ETnvwlfmF2K4Qygd5kz8veo9d94DUCFKJJ/uPx1DkAznxM42OMByz54AgtF0X3J0de+u91X1q0bfeApOv9wRDmVc2rQq+qZJ9H4rym8sH+4/vFQTpjhMRs3A1GC0dteTY7j8UJegMAsMjrctU9f+lr2tI5rs6fgCv5hWRjFF0tDbSbZ5D8i8b8cKTpH4aR6pmFOTmBfXQD10efY4vDfhAXlPKGlfHytGY4+K7db3/bbnlfwb8B4iIBEF6xgl3fYIvHv1tfyhm56m1DiOOBmZXK9Fah8h6dbPI93AVrEcigV4GtN3/ctbXeMv5iPB1fwj/ypettmtam1We6YSPx/77LKKIBFaP/jsxJ0VcQ/M/MnO5zBPfGAuYkSd4/CMN3RLD7Lyp0e7/BJp2v4RwW0dZYTEBXr9fuJI/APU/cCcv/gYRPm/12C3Z9XFNZFHZ4Sk/3i8p9HKoDoK/Xf6Gtfyz7c55vO1/CfQaUhdYnq97KrqIWvQXj+S8i3LxfpTOZhAUYFE/8of03gKbAekMeS4594GtC4FPqgQCbT+qCufS0XIkDgOlzFv42MaVPyxj24X+moIsd4gNNMlP88HvevSA3b3wQ7/pHQv5cC2X0YQP0WUyJIFDjx3iMjkB8WUX70ZAIB9k9v9/ua71X8Z0pQ5TkHiYyxKZBvNrB4DH3mdxJB/vVSsEnm4JsI8rsfyqBdbxIM2SsUsKpiBMBin5wKbxfUwFsphMUqEvHQgB0ccFSAxXpHl/y7O7J/Lf8Zooi6oreHh3rJMbALk+EILx1u0rLqkNOceR4LACrp1YpE1WZdlTbDSalp1PI1u3Aoot2G3LyhA5p7VPENODEJQ06E/9pG6CCg3Hqge3tynbf467cG4Ur+8yQhppuEJQ8Gskp+o4M68Bj/PMBKivmG56tflwc6IGNAcWsDWnSMwG4foGI7wPcLoYgnGwUJ0UsJ9L/e19sO/XRf263vy/7V/JNf42DApJtDUfh3yKzyH0hKbhR+LFozCu1MuNEiFvFWR0bgt/r4iGG6fth2cixfT3Yaa9a+EK7l31mRA86Jii7Rta5o/Gfsni//1wvzN75xNxn2XABgkQncahGMeBxCifhdXVIjQM0DO6/903UF4CLiav65K1LdMH0Dkfh3HrgJPson8y9QwQd+pDoELHiBcS3Ifx7WJzDPoTF0uj3k5zqP99T6EGLg312RrBlgKoMD63g4Mv+ZZV1npH+69Mjkx9/sKv0mgYBfB8ECAUUjnsewa+ftg0u+IxK2LfGuxQsbFNS9gn/nlYfUTDxdrq7YMjc6/w5KRUWlPNFU5KLH1FixUz7ZMChOYOGId1SiyDVCeexr2af3e2t9CHZY3ZiBZmNm4kmwpq4qUnEfFBri2A6KIH7b/quNQ1tS4Pefv20PvTr0FgNayiBbN9Sx/BBchpSG0uD7F5k7kXrwxRwVIJh8bft2By8/G3noYrn6Vs39cFN1DTHnT28XJ6zIcYgx+3vqXtD9NnbpMCy2q+bZAKyOGnVKJSiDcw8GauAqlNAj/sX7JdZzNv+a1fmYfiW39G+AfH5Zs5tNY8mPH47vkc5DXdztiSHhX/TnWL7c7uU10ZWf4j7A9LxzoobVOX3EHsaZ4q8F/Pzq9un4a/02f+/+LJmfIhD/AyyBni9Ytm84AAAAAElFTkSuQmCC;" parent="1" vertex="1"><mxGeometry x="600" y="600" width="161" height="31.19" as="geometry"/></mxCell><mxCell id="99Vh0avSpj1J6Xcuv-CY-25" value="" style="shape=image;verticalLabelPosition=bottom;labelBackgroundColor=default;verticalAlign=top;aspect=fixed;imageAspect=0;image=data:image/png,iVBORw0KGgoAAAANSUhEUgAAAaoAAAB2CAMAAACu2ickAAACeVBMVEX////mUm8aGhoAAAAWFhYYGBgMDAzt7e2EhIQoKChWVlbqU3Hj4+O4uLj6oQDXTGjR0dG/c/LExMSlpaVPT0+bm5vW19c6ICURERFubm6IiIisrKz404UABQD5+fnz8/OiZcvFQ1/26aAAAAw+Pj4AAgBISEhlZWWbOU2paNSkZrrm5ub5tjH/wHEzMzP/pwDwn6XRR2e/RF1XIy7Xho7Pjt7Tg6LCdOjWhZXGd/y7cezaXJj/y1347LL44Zj9vWH7s0NZOQ3ytYjyrafpdnzrhYDpa3jxmSfunIdIHibqlFVvLDmyQFjjjnS2b5fqe30iERXZh4HnvcrZodTKfM2jZKjJheKCMUKQWbNCKlDNfsTQgbdeOnXEd+LRY7LNaMjgVoWqPHoeIyqLfVVqYkXCpm3lyYNaVD2RaTyEd1FrVTyul2TtyoD/zXvMl1R6TzHBs3u2hlXjtFA5MyX/2kZGMh7WuXSLgWYOBhv/0lCabV12SRnGwq778sq9rIDot3LikjotDwD++N/czpH4yo9yTEmqbyUcIzfDmEf9tniGYh2kgSRaPSAvIRNgPz6HUA3RjGf+roPmnzE0IxrUq37SfRO4dhJiRjtJJgDsj2nEb23skUj/v6TuiFXBg32DRTjAjnS4djeyZ1PFb0W9gILJZV2MVz9wN1SiNXqmanOVUj9rVGOaN47Kobny1dWNQEuXNZ3nvtKTWmmcYoVJDx2NV3iQVpHneJKLN8TWmNHZmKDsubVOMkV/T5OjVdhpQUNQM1+UNOePTJdhKYGjbMGKZI5oQ34AHxydK0Q+AABLKF6AQXaHPLk8HzTbZ7mDOlzdebM9FCaITSXtgPhiAAAVOklEQVR4nO2di18Td7bAMzlhIAwwgEACOpDwygQkSoIIcdWCvMIECErIA1Cp7dbWWrvrspfV6720VaxuEVtXW9TaW9tb5db6BG9RaFm7xd1b2bb7F93zm5k8eCpqTQ3z/SiQEMgw35zzO7/XRKVSUFBQUFBQUFBQUFBQUFBQUFiIbIs2tTi2ODvSx6GwCLHFGVnx8fkAoM235K8ojlV0/TpZmfkiSOx6SfocY1qhyPrVkWoCeOnl364i7HolN/edd17erSe64lMjfWgK4WRg0st79dXXXtsjunp91abc3Ny9b+x7LS8PIC1BFRvpA1SQyIkT092rb775zpu5uZtEW+hqU8nvSl7brcbvZGUqofWrICMGbbzy8utEEImm3ICrVSUlv/l9yW6iUa+0Wb8CUtHEfinxBeNJ+rwJVf2hpOR38Ao2WYkqVXFcYXGkj3Y5k0xj6ntd1vQ6IgaX5GovqtqMrv7Ysx8sqgwLqJVGK3IUA2heFsVs+uOuf4sz7e+NeeWlXVKQiar+VFKy9/U/bjoA6ZaDVVmRPtzljAleel1Mern/npydvXHjoUOH/oN0q17Zg2Xgf6IqzIAlq/ZuqnbBe31vZUT6cJcxqbD/t6KojW+Tm6R4ePvQoY3v7NoP+3ft2f2GrKpk0+Ej0N8HET7aZU0m7CE1Xy6Kys7OVkl1Ht54e+Oeo1ht7H73T384dqxk1bFVhy/k9fUrqiLIClPmrjdzNx56e2OuDKbAjRhjbx/K3XMK8o7/+U/Hjh0uOXa4+sjB04MQG5cW6SNexmQXZ73yJnG0aZPUqwrxznsQM/DnN44hhw+fGKw/DmmwMtLHu7xJ1u7JXbV3M7J376owX3s378vLGzj5/vvvVx+uJqryoDDSx7rcycl74wVk9Wry8YXNe0ntvmrV5s2/+c1gHhxAVYcPV+v6Tw/qB5T8F2kS4YOkEKtf2Pz7zb9/493d7/Uc7Mk7dfL9k3+prj7Rf7pqsCo/0keq8GL/5s31YbbOHPxoYOCjwcGDehqOvP/hX6rPO86cGThdBcq4baRJ/yip/lh19fnqAO83nqtfg9Tn0XDgw4bzDY4zB6uSqiA90ke6rCHjeonQRIKq7xiWEOe3bNly9+7dLWtrh+qT6gdoGvbvb2hw9OedSToISmMVQXIssUTVWSKGUF9f39fY0IC+tjTUnuvPo9GV7nyLbqCqPglDTKVSKRMiESIHMsmoxdmWlpqWoY9Py41V/bnatVswsPqIK7iwpUaX15/UXzWAjVWGSXEVGXLUUBwLcKGlpqamrq7O+cmZekJSfVMrumqpP5hHqy846n6uqq8fxMYqawWkKaoiQzFAugngv87XElMI3zMoyhJd1Q6dwbCKcVo1xODpAbgPEBfpQ16uJMJBAMxx1dUNkqo6a2/PaaLqXMuWtWtb+mi6wFMn9OMd/QPAOY3Cikgf8jIlx1LVp6fpvLMN56sbalEUVUdRP0N/fR+GVS1mwM+Ac7FDffV9xwfywEMxrCs50se8PMnJhE/PDdCcg61pbUBaKIQxgubTvr6+odq1a2svAggfn8OKIq+A5hmKcZIyROFZkxhngZ5zjado+IRh2TIiq7aOuBLwbgRVrb0G8NmnPeCycS4ng99zgJIAnzWpWRoAUH/a+JmLhk/rGLZUDiwMHSve09hIVJXpCrQHwcWzGkcpw1IMD3SkD3z5IC4Qi11ZCFBA5506OdR4jYYTQ0MMxZayrSirliRBHXzR2NiIqj7naDUtsKU2gaJ4K6bGgsRI/wHLhnStSpWdno9Vn140NfTfApd3oXUIBYmuamvRFeOAL4aGSFt1AkjiY6xGxio4mVKdMrn4zEgGrWqFGiDv4EENDJxsajrbrYcLTWVNJ+tEV2dRVW0dqtrX1DSEQQU0x2ITxbAeB8sYdaCsL3tmWN7TawF6dp871wOnWompS3BgS0MzfkkRV3UttS0tLVg8fNHU1IRBVcB5WMTj8jCMk+NASX/PiuSezwBi9p1sbNwHpy60tjZfvqwdbr3b0FzR2kraqNLSGjRVU6eDA62trWtvAqfjnVZeZ8MEaCtwuJRFS8+MuP85CfovTn7ciJ8+by3rvnz5y7utd+6WNZeXtdZKKbCmpaYGK8BhNDXM0ZyHFziHFVsq0F37RFlc8cxIhKYP4cBFLCY+hOGy5itXrnx19U7Z1q2oqqKsTAqrupqammswUIZgQ6XX2XjKyHMo6uLFT5SpxWdFOjZPp05cuNjUdBFulqOp7q+ubq24sXVrhbu5oqKilqgyXqupq3PBzYqK4ZgCTme0Oj06vcZx7dq1i0N6rbK/4NmQDnDkgvrA59gKnegtd1+/V15+9Wr5nRtb75S7m8vLK1owA5Zahbo6K7jKy2/qORocOoDeb69dE01dhDhVcla6Mgfyi5MFdMHw8PjwcFnZ55pb9667vyq/cWNbx40bX5X73R3l5eVEFcujKhvcKh/H7Nd78+bw8FkRLN2HejQJcTAywiVE+i+JdtJBo9ZXDN8cxtx2ZHz7dffYWMdXNzq23di2raPI39HRUV7joRijy1nnhOlRVwFd4Pq8rKxVBAv3Jgyq9EzgWUEozIn03xLdJAKM6mLKb91q/rK83HX7gde/bWxs2zb/NjTlR1X+jv+9JjCMzcXW6TgXh8nvRAUpLYKqGj4sjAOeceoolyldabN+ORIALnW4dB2jzaO3OsqnH3zt94/5x7aNoaoxv8Htb/N3OMHJCOCps3Fk6QspLCrK7my5cwdFNWzZ0nAE8kFgjB4bwwOAJk5Jg78Aydmq7HgY9/s14x3NzePNHaPffW1ua1vXNja2rm0b/jcUtbe13XI5jDZO73ChKY4bxzKjouLOnbtbt169evXu3TufE31W1uhwMqzR6tEBl6XUF0+dLNJQ9brb3Nyk3+3u9fvHvV93tbe3d61b196+bt06g6G9q/22i7PpSDyhEnr8FlaESMWdrUTVVgwtdGMDI8vbKMZqZRiW10Oh4uopk5OpSoiBiaL2Ihhtc7vB7T/19TddIqgLlZkNXV0/FHC0GE4cqEebOzokUxUoi9Da+i3onAznYQWeYaxOcQDXBvlKffF0KY5XpcFkl6GrCCa6itxQ1Db9V/t6ka4u/Ne13uCdBiIJON/kD7dJMRhQVSEXFifAxqIjnhKcDMNbyXQwQwlgWuKhxEoohhcgw5IItMFsXm/gJtYXFYGhy/fXlBB284QPJU37Jqfu3bvnxf/33O7mgCrJ1REQxEUXDOMUGMpDyTiWOHuVU5gv8oSrM1aaJKKvDE0GC0zazeYUu36q0uwFs/m7b0RJlYh3ahLAN4XpESuLtja/H2tBt/v2vduiLVnVCcmUtESGYkNfu7RLOpJYrV6DQPyT/UFxIDWp0VeDJkMB7SWqKo9OVtq94BVVVeKXUz7wdU4YxEarrU1WRXrDHVgpumVZZcMucFDzwniWFlaxWo0a0YepSk5MTFzqKY8D8lvUUakKpsxmsyGlsnOaqJqwozHDxGTv9OSE10AoQtwykim5riCqbnLYTs2viioNW2lWmLYw+dLawTmqcjLJlezUS5xajmJVH4GBqLJXejUpqKrTrjZMAjc5YQhSFJLV7G6WEGVV3NQBCGTKflY8IWJYWYIFO9D6BZG30M1RZYIYvK1Z4tLC6FWV+h6HtQOqSrH7DCkGbnq6AFsns4H4s9tTUqRSEJNgIAP6Sf4bHUdc+JrXOeeIohh+pNdjZMhas2A1R8eoF2QBVakQ+P6SrrMVvapMp97zphjsBnNKimEyxeziCqYniCd7oAS0i6ra5fZKbq5ujbpIAe/gqXlMnY2/mnTcZcTecGjL6WOoWhFUtaQmL3pVaXUHOlMwqgyoxeu1+7ipME8YVJImMmyBjI2NdTTf+nJcxwGn1wnWeURRFLs1/m5f/QDPUGxoXviJVC1pxW7UqioGVxlH2irMgCmVXp/Pi8VgUNPfJiZ8nHx54enxH77//vtx6YZO4FmpQZon/a20NJdd5LCLxYSamYAqPT2XhybAJZ31qFW1ErjmbycqDWaSAc1crzcgan3733xiz9cbLCymaJTE6R2CkxhZoOyjGOf9dNOX2jSiyqMNNDOyKn185lxM0jXPlLJicdJh/FbztB2jymtP8XFee0DU1PTRKa8XFQZqwCkXNk4uHV/Kzh9NIWz309LSMz0M2TQSyICyKlhkT888xToJYPUSN9dFrSoT3B71j0+kGAwTnaRSlwYqzJP6KW+oWjebu4p8pIzgjQ/TJMLbHCM2MhTICBb5eR5HFeZA7AIv9TKD0aoqOx/c421tnN1u8HIFnF0S1enzyorsdmkgsBNF6eYr9+bPgXLHiqWs9+UnejxVj0PUqrJA0W1v1xQWgVO94BVjyjtJRKElUmhUYrXu9fViE+WZ29V9mDGr4HyyqHocolaVNq+oayrFznkr9dxUJYmgKdKtskvDtSmGiclpTuxBGZcqirhyButsRdWTkq3tNa+fNFd6p+2d0yTZ2TGizCkYSwZvJ0oaGB8dRVmcZ5HcxzgX1MjoAi2NoupJIarshonKlMlObycGlZ2IspunfOO+S7dvu8nYxL1JLCdmuGBZo5ENqwONwlxJkqm/z+5XPU1VxQkis++OXlVgSEnpNFeae31myRQ2TZqpojYZf9GEvmCmKcrICy6XQ7AGZLE2fp6wwrv+HrpK/uOoSo2TyJh9h/h1plbsjKszZ+0UmkfVSvnn4p7n98TAsmJq/XpDZ2WlFzD/mQ12w9Hee9JYEjFV5L0+DZ45FshCFwFspZIh1uqa6UqsAI3/yFwZWgnzOKpWyOMkwfObLt+BjzUBLT5araEhf0YAzVWVCAGe6+ufFMLRrq71nRha2FTZDeYJbqorgMHw4MH1SW7+mUOGsdo4q2TI6HQIpcGEyLDWv/Oeb7NmdIgeT1X4EKGKqBLlaFSp2sCgk/gTMy5EOEdVIsiDWs/5pso4+OHejh0Gn71y0o5B5YUJcQVMe5fZ8OC7zv/zvcjR1gWKBoby6KWCwmg0ehweo5wO+RPp6fn387MSw1eXPU1V6litXh2OXh32spitKlmvkU091zFFTse92zt27PhhqnLCkGLw0lNYBXZ1mb958N1R+EiYnPRxtkVqP14nt14IL/BWo9MjuCA/TgOcCyAtbCVKQNUiYw+PqkqtNtFi5qP1geF6OuxarLNUFatlrc/9xU9S4dL27ehq3DuB3eBJ3/r1Xe3mrx902jzODTvwxgQs1qFiPB4m6EqCopw2F5YcWMO7wl7GsqqYGM1s9FpZ36Or0pNBXK0pMw1o2VXYlNZMVbGFdHTElEqVw03/czthutNn9+qLdrSvwxbqkpXa0CUOKU0usMZFhtXJCyvYUuKplBUTIyv2whg+rA0JTILMVaVZuioMI0tqcbYqpzheDhm9JfhMM1Rlx0Mgpp7/xb5al2jqnz8AZ/D6drStK3pwnWeY7WKTZbcf9Sw6SsHwi3yfEUI5Z+GpxcdRBcGdQaaAimCynaEq+O1ouFZrFnRvQLb/8xJMT7h3+P3Xr+9kKEyJO8ja2iLuIQNKRtdC65UoqtT2C6nSh9ZY50g/pA7NN4erygyYWupC318lGfDjBolpeny7v6Po+mWKIq0XUlR0hVvYhAjrWOQBQqg6fqqqwq+PkSU/KPhUYaqCj4+OpbbZhSCr+hF023/yX7myk9op5sQrV65089zipijKM+9IhTgJwnhCW+4DqmiYQ8xSVWk0Ye3OSvlBwaohpCoRpIijo2WjQzrwsiuXfvtPP125wlLoqXv75e5up5PXP2xA3WmbJ9TwB3mWsf4cqs1lVXRm1lzkl/wjq5rRlU1YSFVsstz1hajZ8poTI+xET90krH5EVZcZDKru7u5SirU6edfDVBk9c1YCMs6848erehz73u2JD7z+n2IXeNYKJpBfA4HbAVWJajmm0qLn7TqzwLlz585ufsPOAt1PP13uZtAbisKa22h9BFXO2eU8w/YO9n2w+oMPNm98N3ian6qqGesCF1CFaVL6ZImKdkoGbAy68lzq9sCorKpUzGNGo/Xhqoxkq+IMUz/3fLCasFe1tydQej17VXLXVxMtDZXICnASVwItaPTNoiprQINx8R4wRS4QYxRsodUxDOXsrZJMrV799sbBJ5mwfyJV+mCXKv757/wGyU7D2CnFuOI4Tne5m9qwITC7gRoeUqyTxxh5nWAUH8eyvGNgsD4pSVZ1uP9F+TmeuSpIyCyQXT3vg3/hJAOpuHfudLoKCqa78YuAH7RQ+ghhhW2ajdM53noL7t/vOS29HcWaNWs2q1ZHUFVxDgSG1J/vyY+ZrASpjNvJO8CG8RXyYJ1np8cspGFa6wgZZTNB1enQW12tXlMVGNCJQFSpMoLTH9F0SUnTiBRI5DIGtjBV2EV6mCkproxGTyaZxRN6Toe9KdmagcAZjISq4AYFjSaKLtSfkz8iRw9jddl2LnEhGSuqiiN1v0c4E6aqPnhWI6IqOAao10ZP30pVbAlMITKMRz/fYNFDbLH/QAtqWudxnFmzJhBU/b2BnduRUaUKzFbp1VFUsidoQ/vknTahdImyGCdplcDG6zzCvjP1pKxISjpj8wTcREhVgjbQXEXT+2pl3BeoYGDxgudhVfpMU6U6cmpMI0arw+a5ZPvX8cHBwX/ZeCHCqrD1VEdhGVicPxJcls4wVo9zofUv85iyalckZ5ATw6Nmh84meHjeI9gEOkb+5ZFSFbb3MZqurJtjcoVKc4ZMwj+qKuw8a4CzrIgtdJFVtywvEDyl1uCAd8RUqUxyTzgmqkp2VTq39P0e4lvvcA7BI/wM6amcTXw7A3G6iqEcllm7FiOgKscir7/QqJe6VetXTUYhPPIuqpAqh80qLqj1QEIqiJEp3mRH5uywj4AqVUaMXFroo2qQHc+PBZxLjyz8ASNlZUfiVMUmjmNZK+KBtNDLOIKqQqUFbYmiMhCJTdf+zLNLDy0nz/JkxCInzUGRq69b4lPDTkxgdn4xVXrpIcH3QFhwzfrMqUWJMFUSYQvZs4KLA6JiOUwYOYn5MEK2/crX35mfMJnySgpMgKlkscZIqZGxqmdKSZRZJAVlyw8JmsmQ7yiefceM7QTyfcGnS5bvCOvzBn5zYuLK6AorQk56PAcjTqfVyD6cUsx2LGsUnFK9l2rRclbnYvGj8FTJjk3ISsu3WHSPgFatxQ/aQrkNyYnNdEXFGsnniezihISMRyQhbEQ0J31lFI2PKigoKCgoKCgoKCgoKCgoKDyn/D/aWVFw7dcjXgAAAABJRU5ErkJggg==;" parent="1" vertex="1"><mxGeometry x="840" y="610" width="196" height="54.29" as="geometry"/></mxCell></root></mxGraphModel></diagram><diagram id="KXrGWxRkQZOmTynkv09x" name="Scaling"><mxGraphModel dx="893" dy="563" grid="1" gridSize="10" guides="1" tooltips="1" connect="1" arrows="1" fold="1" page="1" pageScale="1" pageWidth="1100" pageHeight="850" math="0" shadow="0"><root><mxCell id="0"/><mxCell id="1" parent="0"/><mxCell id="Mk7jmG-IeRtqt-rPw4bC-1" value="" style="whiteSpace=wrap;html=1;aspect=fixed;" parent="1" vertex="1"><mxGeometry x="590" y="185" width="470" height="470" as="geometry"/></mxCell><mxCell id="cV8lg4ZPqKEK8MGKik7X-1" value="" style="shape=image;verticalLabelPosition=bottom;labelBackgroundColor=default;verticalAlign=top;aspect=fixed;imageAspect=0;image=https://allvectorlogo.com/img/2017/07/openai-logo.png;" parent="1" vertex="1"><mxGeometry x="764.8" y="230" width="110.4" height="60" as="geometry"/></mxCell><mxCell id="cV8lg4ZPqKEK8MGKik7X-2" value="" style="shape=image;verticalLabelPosition=bottom;labelBackgroundColor=default;verticalAlign=top;aspect=fixed;imageAspect=0;image=https://allvectorlogo.com/img/2017/07/openai-logo.png;" parent="1" vertex="1"><mxGeometry x="770" y="340" width="110.4" height="60" as="geometry"/></mxCell><mxCell id="cV8lg4ZPqKEK8MGKik7X-3" value="" style="shape=image;verticalLabelPosition=bottom;labelBackgroundColor=default;verticalAlign=top;aspect=fixed;imageAspect=0;image=https://allvectorlogo.com/img/2017/07/openai-logo.png;" parent="1" vertex="1"><mxGeometry x="770" y="470" width="110.4" height="60" as="geometry"/></mxCell><mxCell id="cV8lg4ZPqKEK8MGKik7X-4" value="" style="shape=image;verticalLabelPosition=bottom;labelBackgroundColor=default;verticalAlign=top;aspect=fixed;imageAspect=0;image=https://allvectorlogo.com/img/2017/07/openai-logo.png;" parent="1" vertex="1"><mxGeometry x="770" y="580" width="110.4" height="60" as="geometry"/></mxCell><mxCell id="cV8lg4ZPqKEK8MGKik7X-14" style="edgeStyle=orthogonalEdgeStyle;rounded=0;orthogonalLoop=1;jettySize=auto;html=1;exitX=0.875;exitY=0.5;exitDx=0;exitDy=0;exitPerimeter=0;" parent="1" source="cV8lg4ZPqKEK8MGKik7X-5" edge="1"><mxGeometry relative="1" as="geometry"><mxPoint x="530" y="425" as="targetPoint"/></mxGeometry></mxCell><mxCell id="cV8lg4ZPqKEK8MGKik7X-5" value="Proxy" style="ellipse;shape=cloud;whiteSpace=wrap;html=1;fontStyle=1" parent="1" vertex="1"><mxGeometry x="270" y="385" width="120" height="80" as="geometry"/></mxCell><mxCell id="cV8lg4ZPqKEK8MGKik7X-6" value="APIM" style="text;html=1;strokeColor=none;fillColor=none;align=center;verticalAlign=middle;whiteSpace=wrap;rounded=0;" parent="1" vertex="1"><mxGeometry x="300" y="485" width="60" height="30" as="geometry"/></mxCell><mxCell id="cV8lg4ZPqKEK8MGKik7X-8" value="Azure Traffic Manager" style="text;html=1;strokeColor=none;fillColor=none;align=center;verticalAlign=middle;whiteSpace=wrap;rounded=0;" parent="1" vertex="1"><mxGeometry x="260" y="530" width="140" height="40" as="geometry"/></mxCell><mxCell id="cV8lg4ZPqKEK8MGKik7X-9" value="Azure Front Door" style="text;html=1;strokeColor=none;fillColor=none;align=center;verticalAlign=middle;whiteSpace=wrap;rounded=0;" parent="1" vertex="1"><mxGeometry x="270" y="590" width="130" height="30" as="geometry"/></mxCell><mxCell id="cV8lg4ZPqKEK8MGKik7X-11" style="edgeStyle=orthogonalEdgeStyle;rounded=0;orthogonalLoop=1;jettySize=auto;html=1;exitX=1;exitY=0.5;exitDx=0;exitDy=0;" parent="1" source="cV8lg4ZPqKEK8MGKik7X-10" edge="1"><mxGeometry relative="1" as="geometry"><mxPoint x="240" y="425" as="targetPoint"/></mxGeometry></mxCell><mxCell id="cV8lg4ZPqKEK8MGKik7X-10" value="OpenAI Client" style="triangle;whiteSpace=wrap;html=1;fontStyle=1" parent="1" vertex="1"><mxGeometry x="40" y="360" width="120" height="130" as="geometry"/></mxCell></root></mxGraphModel></diagram></mxfile>